Film set in the Portuguese seaside during the breakout of the Spanish Civil War 1936, showing various reactions of the vacationers.
 
http://www.imdb.com/title/tt0114452


      Format : AVI
      Format/Info : Audio Video Interleave
      File size : 1.36 GiB
      Duration : 1h 40mn
      Overall bit rate : 1 950 Kbps
      Writing application : VirtualDubMod 1.5.4.1 (build 2178/release)
      Writing library : VirtualDubMod build 2178/release
   Video #0
      ID : 0
      Format : MPEG-4 Visual
      Format profile : AdvancedSimple@L5
      Format settings, BVOP : No
      Format settings, QPel : No
      Format settings, GMC : No warppoints
      Format settings, Matrix : Custom
      Codec ID : XVID
      Codec ID/Hint : XviD
      Duration : 1h 40mn
      Bit rate : 1 495 Kbps
      Width : 720 pixels
      Height : 448 pixels
      Display aspect ratio : 1.607
      Frame rate : 25.000 fps
      Resolution : 24 bits
      Colorimetry : 4:2:0
      Scan type : Progressive
      Bits/(Pixel*Frame) : 0.185
      Stream size : 1.04 GiB (77%)
      Writing library : XviD 1.2.1 (UTC 2008-12-04)
   Audio #1
      ID : 1
      Format : AC-3
      Format/Info : Audio Coding 3
      Codec ID : 2000
      Duration : 1h 39mn
      Bit rate mode : Constant
      Bit rate : 448 Kbps
      Channel(s) : 6 channels
      Channel positions : Front: L C R, Surround: L R, LFE
      Sampling rate : 48.0 KHz
      Stream size : 320 MiB (23%)
      Alignment : Split accross interleaves
      Interleave, duration : 96 ms (2.40 video frames)
      Interleave, preload duration : 96 ms